# xmcd CD database file
# Copyright (C) 1993-1996 Ti Kan
#
# Track frame offsets:
#  150
#  11330
#  22661
#  35165
#  47546
#  59269
#  70212
#  82519
#  94888
#  104016
#  119974
#  130143
#  140759
#  158566
#  171121
#  183071
#  194312
#  211542
#  223144
#  231935
#
# Disc length: 3255 seconds
#
# Revision: 4
# Processed by: cddbd v1.5.2PL0 Copyright (c) Steve Scherf et al.
# Submitted via: Advanced CD Ripper Pro 2.0
#
DISCID=0f0cb514
DTITLE=Various Artist - Country Classics Vol 2
DYEAR=1999
DGENRE=Country
TTITLE0=Marty Robbins - Singing the Blues
TTITLE1=Don Gibson - Sea of Heartbreak
TTITLE2=Kenny Rogers and The First Edition - Reuben James
TTITLE3=Sandy Posey - Single Girl
TTITLE4=Donna Fargo - The Happiest Girl in the Whole Usa
TTITLE5=Hank Locklin - Send Me the Pillow You Dream on
TTITLE6=Merle Haggard - Okie From Muskogee
TTITLE7=Jack Blanchard and Misty Morgan - Tennessee Bird Walk
TTITLE8=Roger Miller - Chug-a-Lug
TTITLE9=Willie Nelson - Always on My Mind
TTITLE10=Jim Reeves - He'll Have To Go
TTITLE11=Patsy Cline - Lovesick Blues
TTITLE12=Marty Robbins - Big Iron
TTITLE13=Wanda Jackson - Crazy
TTITLE14=Skeeter Davis - The End of the World
TTITLE15=Conway Twitty - It's Only Make Believe
TTITLE16=Ray Price - For the Good Times
TTITLE17=Sammi Smith - Help Me Make It Through the Night
TTITLE18=Ferlin Husky - Wings of a Dove
TTITLE19=Susan Raye - L.a. International Airport
EXTD=
EXTT0=
EXTT1=
EXTT2=
EXTT3=
EXTT4=
EXTT5=
EXTT6=
EXTT7=
EXTT8=
EXTT9=
EXTT10=
EXTT11=
EXTT12=
EXTT13=
EXTT14=
EXTT15=
EXTT16=
EXTT17=
EXTT18=
EXTT19=
PLAYORDER=
